<?xml version="1.0" encoding="UTF-8" standalone="no"?>
<!DOCTYPE svg PUBLIC "-//W3C//DTD SVG 1.1//EN" "http://www.w3.org/Graphics/SVG/1.1/DTD/svg11.dtd">
<svg width="100%" height="100%" viewBox="0 0 3551 1106" version="1.1" xmlns="http://www.w3.org/2000/svg" xmlns:xlink="http://www.w3.org/1999/xlink" xml:space="preserve" xmlns:serif="http://www.serif.com/" style="fill-rule:evenodd;clip-rule:evenodd;stroke-linejoin:round;stroke-miterlimit:2;">
    <g>
        <path d="M40.908,919.445L40.908,1019.81L57.318,1019.81C79.915,1019.81 86.337,1017.91 92.996,1015.06C109.405,1007.92 120.108,992.223 120.108,969.155C120.108,951.552 113.69,932.286 92.758,923.727C82.293,919.445 72.302,919.445 61.362,919.445L40.908,919.445ZM66.118,888.523C76.587,888.523 91.568,888.523 110.118,894.948C122.965,899.464 161.968,919.208 161.968,969.392C161.968,985.564 157.924,1019.34 122.487,1038.61C107.027,1046.93 91.33,1050.73 63.027,1050.73L0.002,1050.73L0.002,888.523L66.118,888.523Z" style="fill:white;fill-rule:nonzero;"/>
        <path d="M245.44,997.692C243.062,998.646 230.693,1003.4 228.078,1004.59C224.984,1006.02 215.234,1010.78 215.234,1020.53C215.234,1028.14 221.418,1032.18 226.175,1032.18C227.125,1032.18 236.64,1032.18 245.44,1024.1L245.44,997.692ZM298.953,1042.88C290.868,1047.88 277.075,1052.87 266.606,1052.87C250.434,1052.87 248.293,1045.02 247.106,1040.74C239.018,1045.97 227.84,1052.87 210.953,1052.87C194.54,1052.87 180.272,1041.69 180.272,1024.1C180.272,1002.21 202.628,994.364 210.715,991.508C216.187,989.608 240.443,981.758 245.44,980.333C245.44,974.624 245.678,961.783 226.65,961.783C205.247,961.783 189.309,976.527 185.981,980.333L185.981,952.267C201.915,942.28 218.562,938.949 233.787,938.949C239.256,938.949 267.084,939.183 276.834,956.786C278.5,959.639 280.165,963.446 280.165,976.767L280.165,1020.05C280.165,1023.86 280.165,1028.85 285.634,1028.85C289.2,1028.85 292.772,1026.95 298.953,1023.62L298.953,1042.88Z" style="fill:white;fill-rule:nonzero;"/>
        <path d="M388.847,964.871L349.366,964.871L349.366,988.893C349.366,1006.02 349.366,1009.83 350.316,1015.53C352.222,1026.47 362.21,1027.42 365.778,1027.42C375.053,1027.42 381.475,1024.57 388.847,1021L388.847,1045.97C382.663,1048.36 372.2,1052.87 356.741,1052.87C342.947,1052.87 329.15,1047.64 321.063,1036.46C315.832,1029.09 314.403,1021 314.403,1004.59L314.403,964.871L298.707,964.871L298.707,958.449L344.61,906.602L349.366,906.602L349.366,941.09L388.847,941.09L388.847,964.871Z" style="fill:white;fill-rule:nonzero;"/>
        <path d="M468.995,997.692C466.617,998.646 454.248,1003.4 451.633,1004.59C448.542,1006.02 438.789,1010.78 438.789,1020.53C438.789,1028.14 444.973,1032.18 449.73,1032.18C450.68,1032.18 460.195,1032.18 468.995,1024.1L468.995,997.692ZM522.508,1042.88C514.423,1047.88 500.627,1052.87 490.161,1052.87C473.989,1052.87 471.848,1045.02 470.661,1040.74C462.573,1045.97 451.395,1052.87 434.508,1052.87C418.095,1052.87 403.827,1041.69 403.827,1024.1C403.827,1002.21 426.183,994.364 434.27,991.508C439.739,989.608 464.002,981.758 468.995,980.333C468.995,974.624 469.233,961.783 450.205,961.783C428.802,961.783 412.864,976.527 409.536,980.333L409.536,952.267C425.47,942.28 442.117,938.949 457.342,938.949C462.811,938.949 490.639,939.183 500.389,956.786C502.055,959.639 503.72,963.446 503.72,976.767L503.72,1020.05C503.72,1023.86 503.72,1028.85 509.189,1028.85C512.758,1028.85 516.327,1026.95 522.508,1023.62L522.508,1042.88Z" style="fill:white;fill-rule:nonzero;"/>
        <path d="M684.227,927.057C684.227,919.444 678.517,913.5 669.242,913.5C662.108,913.5 654.261,917.303 654.261,925.628C654.261,934.191 666.864,946.322 668.055,947.275C673.524,943.944 684.227,937.76 684.227,927.057M652.355,985.088C641.18,992.463 635.708,999.36 635.708,1006.97C635.708,1019.81 647.361,1026.24 655.924,1026.24C662.821,1026.24 672.574,1022.91 681.136,1016.96L652.355,985.088ZM761.049,1050.73L711.817,1050.73L699.924,1037.89C677.567,1051.92 657.589,1052.88 650.93,1052.88C622.627,1052.88 597.652,1036.46 597.652,1010.06C597.652,982.95 625.005,968.916 634.042,964.16C627.146,954.407 619.299,943.232 619.299,928.244C619.299,906.363 637.136,886.385 669.005,886.385C700.399,886.385 715.861,905.413 715.861,924.678C715.861,940.138 706.346,954.407 685.655,966.538L707.774,991.988C717.049,982.472 722.996,972.722 726.324,966.538L761.049,966.538C757.242,974.863 747.017,998.407 728.464,1015.06L761.049,1050.73Z" style="fill:white;fill-rule:nonzero;"/>
        <path d="M1025.75,1050.73L984.841,1050.73L984.841,951.552L941.319,1003.88L935.372,1003.88L891.847,951.552L891.847,1050.73L850.94,1050.73L850.94,888.524L886.853,888.524L938.225,950.124L990.312,888.524L1025.75,888.524L1025.75,1050.73Z" style="fill:white;fill-rule:nonzero;"/>
        <path d="M1116.83,997.692C1114.45,998.646 1102.08,1003.4 1099.47,1004.59C1096.38,1006.02 1086.62,1010.78 1086.62,1020.53C1086.62,1028.14 1092.81,1032.18 1097.56,1032.18C1098.51,1032.18 1108.03,1032.18 1116.83,1024.1L1116.83,997.692ZM1170.34,1042.88C1162.26,1047.88 1148.46,1052.87 1138,1052.87C1121.82,1052.87 1119.68,1045.02 1118.5,1040.74C1110.41,1045.97 1099.23,1052.87 1082.34,1052.87C1065.93,1052.87 1051.66,1041.69 1051.66,1024.1C1051.66,1002.21 1074.02,994.364 1082.11,991.508C1087.57,989.608 1111.83,981.758 1116.83,980.333C1116.83,974.624 1117.07,961.783 1098.04,961.783C1076.64,961.783 1060.7,976.527 1057.37,980.333L1057.37,952.267C1073.31,942.28 1089.95,938.949 1105.18,938.949C1110.65,938.949 1138.47,939.183 1148.22,956.786C1149.89,959.639 1151.56,963.446 1151.56,976.767L1151.56,1020.05C1151.56,1023.86 1151.56,1028.85 1157.02,1028.85C1160.59,1028.85 1164.16,1026.95 1170.34,1023.62L1170.34,1042.88Z" style="fill:white;fill-rule:nonzero;"/>
        <path d="M1219.33,956.787C1228.61,946.084 1239.07,938.949 1255.01,938.949C1275.22,938.949 1286.16,950.603 1290.92,960.356C1294.96,968.44 1295.2,976.29 1295.2,986.037L1295.2,1050.73L1260.48,1050.73L1260.48,988.893C1260.48,981.996 1260.48,977.24 1258.82,973.196C1256.44,966.537 1250.25,962.971 1243.35,962.971C1229.56,962.971 1220.76,977.715 1219.33,980.093L1219.33,1050.73L1184.85,1050.73L1184.85,941.09L1219.33,941.09L1219.33,956.787Z" style="fill:white;fill-rule:nonzero;"/>
        <path d="M1382.96,997.692C1380.58,998.646 1368.21,1003.4 1365.6,1004.59C1362.5,1006.02 1352.75,1010.78 1352.75,1020.53C1352.75,1028.14 1358.94,1032.18 1363.69,1032.18C1364.64,1032.18 1374.16,1032.18 1382.96,1024.1L1382.96,997.692ZM1436.47,1042.88C1428.39,1047.88 1414.59,1052.87 1404.13,1052.87C1387.95,1052.87 1385.81,1045.02 1384.63,1040.74C1376.54,1045.97 1365.36,1052.87 1348.47,1052.87C1332.06,1052.87 1317.79,1041.69 1317.79,1024.1C1317.79,1002.21 1340.15,994.364 1348.24,991.508C1353.7,989.608 1377.96,981.758 1382.96,980.333C1382.96,974.624 1383.2,961.783 1364.17,961.783C1342.77,961.783 1326.83,976.527 1323.5,980.333L1323.5,952.267C1339.43,942.28 1356.08,938.949 1371.31,938.949C1376.78,938.949 1404.6,939.183 1414.35,956.786C1416.02,959.639 1417.68,963.446 1417.68,976.767L1417.68,1020.05C1417.68,1023.86 1417.68,1028.85 1423.15,1028.85C1426.72,1028.85 1430.29,1026.95 1436.47,1023.62L1436.47,1042.88Z" style="fill:white;fill-rule:nonzero;"/>
        <path d="M1496.64,961.544C1483.08,961.544 1477.14,973.438 1477.14,981.523C1477.14,992.223 1486.17,1001.03 1496.88,1001.03C1509.25,1001.03 1516.86,990.323 1516.86,980.807C1516.86,971.529 1509.25,961.544 1496.64,961.544M1498.07,1059.06C1493.79,1059.06 1471.19,1059.06 1471.19,1072.38C1471.19,1075.71 1473.57,1084.98 1497.59,1084.98C1509.72,1084.98 1513.77,1083.32 1517.81,1080.94C1521.85,1078.56 1524.23,1074.28 1524.23,1071.18C1524.23,1059.06 1501.87,1059.06 1498.07,1059.06M1558.95,963.923L1543.02,963.923C1545.4,967.729 1548.49,972.957 1548.49,982.473C1548.49,987.466 1547.06,1009.83 1518.28,1017.44C1511.86,1019.1 1507.82,1019.58 1498.31,1020.05C1489.27,1020.77 1487.6,1025.52 1487.6,1027.42C1487.6,1033.13 1495.93,1034.08 1512.34,1035.28C1527.56,1036.22 1554.91,1042.17 1554.91,1069.05C1554.91,1089.26 1538.26,1097.59 1532.55,1099.97C1523.04,1104.01 1514.48,1105.44 1498.54,1105.44C1489.03,1105.44 1475,1105.2 1463.34,1101.16C1449.55,1096.16 1439.32,1086.64 1439.32,1073.57C1439.32,1064.29 1444.55,1052.16 1468.81,1045.98C1461.2,1043.6 1455.26,1039.32 1455.26,1031.47C1455.26,1019.81 1468.34,1016.72 1475.47,1015.06C1461.44,1012.68 1444.79,1001.03 1444.79,980.807C1444.79,961.782 1457.16,951.554 1466.2,947.032C1477.85,941.088 1490.93,941.088 1498.07,941.088L1558.95,941.088L1558.95,963.923Z" style="fill:white;fill-rule:nonzero;"/>
        <path d="M1653.13,983.422C1652.18,973.672 1645.76,959.879 1629.35,959.879C1612.46,959.879 1606.28,973.91 1605.56,983.422L1653.13,983.422ZM1681.67,1038.36C1661.45,1052.63 1639.57,1052.88 1631.72,1052.88C1583.2,1052.88 1569.17,1019.58 1569.17,996.029C1569.17,960.832 1596.52,938.951 1627.2,938.951C1650.04,938.951 1684.29,952.504 1683.57,1001.5L1604.85,1001.5C1606.28,1021.48 1619.83,1031.47 1641.24,1031.47C1660.98,1031.47 1670.97,1024.1 1681.67,1016.24L1681.67,1038.36Z" style="fill:white;fill-rule:nonzero;"/>
        <path d="M1743.5,955.121C1758.01,942.036 1771.33,938.949 1782.03,938.949C1789.88,938.949 1802.01,940.611 1811.28,948.936C1817.23,954.171 1819.37,958.449 1821.28,962.255C1827.46,954.886 1841.49,938.949 1864.56,938.949C1877.88,938.949 1890.48,943.705 1898.57,954.405C1906.66,965.111 1907.61,973.911 1907.61,984.614L1907.61,1050.73L1872.88,1050.73L1872.88,991.511C1872.88,981.999 1872.88,963.446 1852.43,963.446C1840.3,963.446 1831.26,972.008 1825.32,980.571L1825.32,1050.73L1790.83,1050.73L1790.83,989.608C1790.83,983.664 1790.83,978.43 1787.98,973.196C1783.93,966.061 1776.08,963.208 1769.9,963.208C1765.14,963.208 1754.92,964.636 1743.5,977.239L1743.5,1050.73L1709.25,1050.73L1709.25,941.089L1743.5,941.089L1743.5,955.121Z" style="fill:white;fill-rule:nonzero;"/>
        <path d="M2015.1,983.422C2014.15,973.672 2007.73,959.879 1991.32,959.879C1974.43,959.879 1968.25,973.91 1967.53,983.422L2015.1,983.422ZM2043.64,1038.36C2023.42,1052.63 2001.54,1052.88 1993.69,1052.88C1945.17,1052.88 1931.14,1019.58 1931.14,996.029C1931.14,960.832 1958.49,938.951 1989.17,938.951C2012.01,938.951 2046.26,952.504 2045.54,1001.5L1966.82,1001.5C1968.25,1021.48 1981.8,1031.47 2003.21,1031.47C2022.95,1031.47 2032.94,1024.1 2043.64,1016.24L2043.64,1038.36Z" style="fill:white;fill-rule:nonzero;"/>
        <path d="M2105.71,956.787C2114.99,946.084 2125.45,938.949 2141.39,938.949C2161.6,938.949 2172.54,950.603 2177.3,960.356C2181.34,968.44 2181.58,976.29 2181.58,986.037L2181.58,1050.73L2146.86,1050.73L2146.86,988.893C2146.86,981.996 2146.86,977.24 2145.19,973.196C2142.81,966.537 2136.63,962.971 2129.73,962.971C2115.94,962.971 2107.14,977.715 2105.71,980.093L2105.71,1050.73L2071.22,1050.73L2071.22,941.09L2105.71,941.09L2105.71,956.787Z" style="fill:white;fill-rule:nonzero;"/>
        <path d="M2286.46,964.871L2246.98,964.871L2246.98,988.893C2246.98,1006.02 2246.98,1009.83 2247.93,1015.53C2249.84,1026.47 2259.82,1027.42 2263.39,1027.42C2272.67,1027.42 2279.09,1024.57 2286.46,1021L2286.46,1045.97C2280.28,1048.36 2269.81,1052.87 2254.35,1052.87C2240.56,1052.87 2226.76,1047.64 2218.68,1036.46C2213.44,1029.09 2212.02,1021 2212.02,1004.59L2212.02,964.871L2196.32,964.871L2196.32,958.449L2242.22,906.602L2246.98,906.602L2246.98,941.09L2286.46,941.09L2286.46,964.871Z" style="fill:white;fill-rule:nonzero;"/>
        <path d="M2526.19,1036.7C2502.41,1049.3 2483.14,1052.88 2462.45,1052.88C2399.42,1052.88 2368.03,1011.73 2368.03,970.103C2368.03,929.197 2400.14,886.384 2466.02,886.384C2495.51,886.384 2515.97,895.663 2524.29,900.656L2524.29,937.997C2517.63,933 2496.94,920.397 2468.87,920.397C2435.1,920.397 2410.12,939.897 2410.12,969.628C2410.12,1001.5 2437.24,1019.34 2467.68,1019.34C2482.9,1019.34 2497.17,1015.06 2510.73,1008.16L2526.19,999.359L2526.19,1036.7Z" style="fill:white;fill-rule:nonzero;"/>
        <path d="M2610.14,960.116C2586.12,960.116 2586.12,987.232 2586.12,997.219C2586.12,1003.88 2586.12,1031.47 2611.09,1031.47C2635.59,1031.47 2635.59,1002.93 2635.59,994.129C2635.59,986.516 2635.59,960.116 2610.14,960.116M2611.09,1052.88C2577.55,1052.88 2549.01,1032.18 2549.01,996.507C2549.01,962.257 2576.84,938.951 2611.33,938.951C2636.3,938.951 2672.45,952.982 2672.45,996.266C2672.45,1039.08 2636.3,1052.88 2611.09,1052.88" style="fill:white;fill-rule:nonzero;"/>
        <path d="M2730.47,956.787C2739.74,946.084 2750.21,938.949 2766.15,938.949C2786.36,938.949 2797.3,950.603 2802.06,960.356C2806.1,968.44 2806.34,976.29 2806.34,986.037L2806.34,1050.73L2771.62,1050.73L2771.62,988.893C2771.62,981.996 2771.62,977.24 2769.95,973.196C2767.57,966.537 2761.39,962.971 2754.49,962.971C2740.7,962.971 2731.9,977.715 2730.47,980.093L2730.47,1050.73L2695.98,1050.73L2695.98,941.09L2730.47,941.09L2730.47,956.787Z" style="fill:white;fill-rule:nonzero;"/>
        <path d="M2910.75,971.53C2898.86,965.111 2887.2,960.83 2876.74,960.83C2873.65,960.83 2861.52,961.305 2861.52,968.442C2861.52,972.723 2863.89,974.386 2875.08,979.142C2896.72,987.705 2916.22,995.792 2916.22,1017.91C2916.22,1040.27 2899.57,1052.87 2871.51,1052.87C2854.38,1052.87 2837.73,1047.88 2832.26,1044.79L2832.26,1020.53C2849.62,1029.56 2860.8,1030.75 2867.22,1030.75C2878.64,1030.75 2883.88,1026.95 2883.88,1022.43C2883.88,1016.25 2879.59,1014.58 2862.94,1007.68C2851.76,1002.93 2849.15,1001.74 2844.63,999.12C2836.07,993.889 2830.12,984.614 2830.12,972.958C2830.12,954.408 2845.82,938.948 2874.83,938.948C2894.58,938.948 2905.28,944.18 2910.75,947.033L2910.75,971.53Z" style="fill:white;fill-rule:nonzero;"/>
        <path d="M3046.55,1050.73L3011.83,1050.73L3011.83,1035.03C2999.93,1051.92 2984,1052.87 2977.1,1052.87C2954.98,1052.87 2943.57,1039.08 2939.52,1028.61C2937.14,1021.95 2937.14,1015.53 2937.14,1009.58L2937.14,941.086L2971.87,941.086L2971.87,999.599C2971.87,1012.91 2971.87,1028.85 2988.52,1028.85C2992.8,1028.85 3002.55,1027.66 3011.83,1013.39L3011.83,941.086L3046.55,941.086L3046.55,1050.73Z" style="fill:white;fill-rule:nonzero;"/>
        <rect x="3076.03" y="888.525" width="34.725" height="162.206" style="fill:white;"/>
        <path d="M3218.01,964.871L3178.53,964.871L3178.53,988.893C3178.53,1006.02 3178.53,1009.83 3179.48,1015.53C3181.38,1026.47 3191.37,1027.42 3194.94,1027.42C3204.22,1027.42 3210.64,1024.57 3218.01,1021L3218.01,1045.97C3211.83,1048.36 3201.36,1052.87 3185.9,1052.87C3172.11,1052.87 3158.31,1047.64 3150.23,1036.46C3144.99,1029.09 3143.57,1021 3143.57,1004.59L3143.57,964.871L3127.87,964.871L3127.87,958.449L3173.77,906.602L3178.53,906.602L3178.53,941.09L3218.01,941.09L3218.01,964.871Z" style="fill:white;fill-rule:nonzero;"/>
        <path d="M3272.95,1050.73L3239.89,1050.73L3239.89,941.087L3272.95,941.087L3272.95,1050.73ZM3276.04,904.937C3276.04,915.64 3267.48,923.965 3257.25,923.965C3246.79,923.965 3238.22,915.64 3238.22,904.937C3238.22,894.233 3247.03,886.146 3257.25,886.146C3267.48,886.146 3276.04,894.233 3276.04,904.937" style="fill:white;fill-rule:nonzero;"/>
        <path d="M3338.35,956.787C3347.62,946.084 3358.09,938.949 3374.03,938.949C3394.24,938.949 3405.18,950.603 3409.94,960.356C3413.99,968.44 3414.22,976.29 3414.22,986.037L3414.22,1050.73L3379.5,1050.73L3379.5,988.893C3379.5,981.996 3379.5,977.24 3377.83,973.196C3375.45,966.537 3369.27,962.971 3362.37,962.971C3348.58,962.971 3339.78,977.715 3338.35,980.093L3338.35,1050.73L3303.86,1050.73L3303.86,941.09L3338.35,941.09L3338.35,956.787Z" style="fill:white;fill-rule:nonzero;"/>
        <path d="M3488.18,961.544C3474.62,961.544 3468.68,973.438 3468.68,981.523C3468.68,992.223 3477.71,1001.03 3488.42,1001.03C3500.79,1001.03 3508.4,990.323 3508.4,980.807C3508.4,971.529 3500.79,961.544 3488.18,961.544M3489.61,1059.06C3485.33,1059.06 3462.73,1059.06 3462.73,1072.38C3462.73,1075.71 3465.11,1084.98 3489.13,1084.98C3501.26,1084.98 3505.31,1083.32 3509.35,1080.94C3513.39,1078.56 3515.77,1074.28 3515.77,1071.18C3515.77,1059.06 3493.41,1059.06 3489.61,1059.06M3550.49,963.923L3534.56,963.923C3536.94,967.729 3540.03,972.957 3540.03,982.473C3540.03,987.466 3538.6,1009.83 3509.82,1017.44C3503.4,1019.1 3499.36,1019.58 3489.85,1020.05C3480.81,1020.77 3479.14,1025.52 3479.14,1027.42C3479.14,1033.13 3487.47,1034.08 3503.88,1035.28C3519.1,1036.22 3546.45,1042.17 3546.45,1069.05C3546.45,1089.26 3529.8,1097.59 3524.09,1099.97C3514.58,1104.01 3506.02,1105.44 3490.08,1105.44C3480.57,1105.44 3466.54,1105.2 3454.88,1101.16C3441.09,1096.16 3430.86,1086.64 3430.86,1073.57C3430.86,1064.29 3436.09,1052.16 3460.36,1045.98C3452.74,1043.6 3446.8,1039.32 3446.8,1031.47C3446.8,1019.81 3459.88,1016.72 3467.01,1015.06C3452.98,1012.68 3436.33,1001.03 3436.33,980.807C3436.33,961.782 3448.7,951.554 3457.74,947.032C3469.39,941.088 3482.47,941.088 3489.61,941.088L3550.49,941.088L3550.49,963.923L3550.49,963.923Z" style="fill:white;fill-rule:nonzero;"/>
        <path d="M1867.19,822.967L1659.64,822.967L1659.64,319.777L1438.82,585.252L1408.65,585.252L1187.82,319.777L1187.82,822.967L980.277,822.967L980.277,0.008L1162.49,0.008L1423.13,312.539L1687.39,0.008L1867.19,0.008L1867.19,822.967Z" style="fill:white;fill-rule:nonzero;"/>
        <path d="M2258.14,152.049L2258.14,341.499L2325.72,341.499C2392.08,341.499 2480.17,341.499 2480.17,244.964C2480.17,152.049 2389.67,152.049 2330.54,152.049L2258.14,152.049ZM2387.26,0.008C2440.35,0.008 2504.3,0.008 2567.05,33.793C2637.04,71.199 2692.55,149.636 2692.55,243.758C2692.55,329.43 2647.9,409.074 2574.29,453.721C2511.54,492.333 2447.59,492.333 2380.01,492.333L2258.14,492.333L2258.14,822.968L2050.59,822.968L2050.59,0.008L2387.26,0.008Z" style="fill:white;fill-rule:nonzero;"/>
        <path d="M3069.03,197.903L2948.36,516.469L3201.76,516.469L3069.03,197.903ZM3550.5,822.969L3329.67,822.969L3262.1,660.066L2894.06,660.066L2832.52,822.969L2615.32,822.969L2947.16,0.006L3184.87,0.006L3550.5,822.969Z" style="fill:white;fill-rule:nonzero;"/>
        <path d="M424.008,672.122L424.008,474.241L796.873,474.241L796.873,319.784L424.008,319.784L424.008,153.256L814.983,153.256L814.983,0L216.47,0L216.47,72.15L360.77,72.15L360.77,144.322L144.298,144.322L144.298,216.472L216.47,216.472L216.47,288.622L288.62,288.622L288.62,360.772L144.298,360.772L144.298,432.922L216.47,432.922L216.47,505.069L288.62,505.069L288.62,577.244L216.47,577.244L216.47,678.662L288.62,678.662L288.62,750.812L144.467,750.812L144.467,822.962L823.417,822.962L823.417,672.122L424.008,672.122Z" style="fill:white;fill-rule:nonzero;"/>
        <rect x="72.147" y="0" width="72.153" height="72.153" style="fill:white;"/>
        <rect x="144.306" y="72.153" width="72.153" height="72.153" style="fill:white;"/>
        <rect x="72.15" y="216.472" width="72.15" height="72.15" style="fill:white;"/>
        <rect x="72.15" y="432.922" width="72.15" height="72.147" style="fill:white;"/>
        <path d="M144.299,505.069L144.299,577.231L72.155,577.231L72.155,649.384L144.305,649.384L144.305,577.244L216.471,577.244L216.471,505.069L144.299,505.069Z" style="fill:white;fill-rule:nonzero;"/>
        <rect x="0" y="649.381" width="72.153" height="72.153" style="fill:white;"/>
        <rect x="72.153" y="721.534" width="72.153" height="72.153" style="fill:white;"/>
        <rect x="0.003" y="288.621" width="72.147" height="144.3" style="fill:white;"/>
        <rect x="0" y="144.313" width="72.153" height="72.153" style="fill:white;"/>
    </g>
</svg>
